<?xml version="1.0" encoding="utf-8"?>
<!-- Generator: Adobe Illustrator 23.1.0, SVG Export Plug-In . SVG Version: 6.00 Build 0)  -->
<svg version="1.1" id="Capa_1" xmlns="http://www.w3.org/2000/svg" xmlns:xlink="http://www.w3.org/1999/xlink" x="0px" y="0px"
	 viewBox="0 0 539.3 102" style="enable-background:new 0 0 539.3 102;" xml:space="preserve">
<style type="text/css">
	.st0{fill:#FFFFFF;}
	.st1{enable-background:new    ;}
</style>
<title>creado_bykondo</title>
<rect x="198.4" y="38.4" class="st0" width="3.2" height="25.3"/>
<polygon class="st0" points="208.4,50.9 218.7,40.7 216.4,38.4 203.9,50.9 216.6,63.7 218.9,61.4 "/>
<path class="st0" d="M230.6,49h-0.1l-0.7-0.4l-1.1-0.6c-2.8-1.5-3.7-2.1-3.7-3.7c0-2.6,2.8-2.9,4-2.9c1.8,0,3.5,0.8,4.7,2.1l0.3,0.3
	l2.4-2.3l-0.3-0.3c-1.8-2-4.4-3.1-7.1-3.1c-4.4,0-7.3,2.4-7.3,6.2s2.7,5.1,5.6,6.6c0.3,0.2,0.7,0.3,1,0.5l0.9,0.5
	c2.1,1,4.1,2,4.1,4.8c0,3.4-3.1,3.8-4.4,3.8c-1.9-0.1-3.8-1-5.1-2.4l-0.3-0.3L221,60l0.3,0.3c1.9,2.1,4.7,3.4,7.5,3.6l0,0
	c4.7,0,7.7-2.8,7.7-7.1C236.6,52,232.8,50.1,230.6,49z"/>
<path class="st0" d="M242.3,22.5H189v57.1h57.1V22.5H242.3z M241.9,75.5H193v-49h48.9V75.5z"/>
<rect x="261.7" y="32" class="st0" width="4.8" height="38.1"/>
<polygon class="st0" points="276.8,50.8 292.2,35.4 288.8,32 269.9,50.8 289.1,70 292.5,66.6 "/>
<path class="st0" d="M338.9,42.9c-5.6,0-11.2,4.3-11.2,12.4v14.8h4.8v-15c0-5.3,3.3-7.6,6.5-7.6s6.5,2.4,6.5,7.9v14.7h4.8V55.5
	C350.1,47.2,344.5,42.9,338.9,42.9z"/>
<path class="st0" d="M310,47.7c4.9,0,8.8,4,8.8,8.8s-4,8.8-8.8,8.8s-8.8-4-8.8-8.8l0,0C301.2,51.6,305.1,47.7,310,47.7 M310,42.9
	c-7.5,0-13.6,6.1-13.6,13.6s6.1,13.6,13.6,13.6s13.6-6.1,13.6-13.6l0,0C323.6,49,317.5,42.9,310,42.9z"/>
<path class="st0" d="M402.5,47.7c4.9,0,8.8,4,8.8,8.8s-4,8.8-8.8,8.8s-8.8-4-8.8-8.8l0,0C393.7,51.6,397.6,47.7,402.5,47.7
	 M402.5,42.9c-7.5,0-13.6,6.1-13.6,13.6s6.1,13.6,13.6,13.6s13.6-6.1,13.6-13.6l0,0C416.1,49,410,42.9,402.5,42.9z"/>
<path class="st0" d="M434.6,48.1l-0.1-0.1l-1-0.5c-0.5-0.3-1-0.5-1.6-0.8c-4.2-2.2-5.5-3-5.5-5.5c0-3.9,4.1-4.3,5.9-4.3
	c2.7,0,5.2,1.2,7,3.1l0.5,0.5l3.4-3.5l-0.5-0.5c-2.7-2.9-6.5-4.5-10.5-4.5c-6.6,0-10.8,3.6-10.8,9.2s4,7.6,8.3,9.8l1.5,0.8
	c0.4,0.2,0.8,0.4,1.3,0.7c3.1,1.5,6.1,3,6.1,7.2c0,5.1-4.6,5.6-6.5,5.6c-2.9-0.2-5.6-1.5-7.5-3.6l-0.5-0.5l-3.7,3.2l0.5,0.5
	c2.9,3.1,6.9,5,11.2,5.2l0,0c7,0,11.4-4.1,11.4-10.5C443.4,52.4,437.9,49.7,434.6,48.1z"/>
<path class="st0" d="M384,65.3c-1.4,0-2.6-1.1-2.6-2.6V32h-4.8v14.2c-5.7-4.9-14.3-4.2-19.2,1.5s-4.2,14.3,1.5,19.2
	c5.4,4.6,13.5,4.3,18.5-0.7c1.3,2.5,3.8,4,6.5,4h0.8v-4.8L384,65.3L384,65.3z M367.8,65.3c-4.9,0-8.8-4-8.8-8.8s4-8.8,8.8-8.8
	c4.9,0,8.8,4,8.8,8.8l0,0C376.7,61.4,372.7,65.3,367.8,65.3L367.8,65.3z"/>
<path class="st0" d="M461.1,47.7c4.9,0,8.8,4,8.8,8.8s-4,8.8-8.8,8.8s-8.8-4-8.8-8.8l0,0C452.2,51.6,456.2,47.7,461.1,47.7
	 M461.1,42.9c-7.5,0-13.6,6.1-13.6,13.6s6.1,13.6,13.6,13.6s13.6-6.1,13.6-13.6l0,0C474.7,49,468.6,42.9,461.1,42.9z"/>
<path class="st0" d="M491.3,32c-5.1,0-9.2,4.1-9.2,9.2v1.7h-3.4V47h3.4v23.1h4.8V47h7.5v-4.1h-7.5v-1.7c0-2.4,2-4.4,4.4-4.4
	c1.3,0,2.6,0.6,3.4,1.6l2.5-4.3C495.6,32.7,493.5,32,491.3,32z"/>
<path class="st0" d="M514.8,65c-2.2,0.9-4.8-0.1-5.8-2.3c-0.2-0.5-0.4-1.1-0.3-1.7V47h6.1v-4.1h-6.1V32h-4.8v10.9h-3.4V47h3.4v13.9
	c0,5.1,4.1,9.2,9.2,9.2c1.4,0,2.8-0.3,4.1-1L514.8,65z"/>
<g class="st1">
	<path class="st0" d="M23,52.5c0-1,0.2-2,0.5-2.9c0.4-0.9,0.9-1.7,1.5-2.4s1.4-1.2,2.3-1.6c0.9-0.4,1.9-0.6,3-0.6
		c1.5,0,2.7,0.3,3.8,1c1.1,0.6,1.9,1.5,2.4,2.6l-2.4,0.8c-0.4-0.7-0.9-1.2-1.6-1.6c-0.7-0.4-1.4-0.6-2.2-0.6c-0.7,0-1.3,0.1-1.9,0.4
		c-0.6,0.3-1.1,0.6-1.5,1.1c-0.4,0.5-0.8,1.1-1,1.7c-0.3,0.7-0.4,1.4-0.4,2.2c0,0.8,0.1,1.5,0.4,2.2c0.3,0.7,0.6,1.3,1.1,1.8
		c0.4,0.5,1,0.9,1.5,1.2c0.6,0.3,1.2,0.4,1.9,0.4c0.4,0,0.9-0.1,1.3-0.2c0.4-0.1,0.8-0.3,1.1-0.5c0.3-0.2,0.6-0.4,0.9-0.7
		c0.3-0.3,0.4-0.6,0.6-0.9l2.4,0.7c-0.2,0.5-0.5,1-0.9,1.5c-0.4,0.4-0.9,0.8-1.4,1.1c-0.5,0.3-1.1,0.6-1.8,0.8s-1.4,0.3-2.1,0.3
		c-1.1,0-2.1-0.2-3-0.6c-0.9-0.4-1.7-1-2.4-1.7c-0.7-0.7-1.2-1.5-1.5-2.4C23.2,54.5,23,53.5,23,52.5z"/>
</g>
<g class="st1">
	<path class="st0" d="M47.2,47.4c-1.2,0-2.3,0.4-3.3,1c-0.9,0.6-1.6,1.4-2,2.5v9h-2.5V45.2h2.3v3.4c0.5-1,1.2-1.8,2-2.5
		c0.8-0.6,1.7-1,2.6-1c0.2,0,0.3,0,0.5,0c0.1,0,0.2,0,0.3,0V47.4z"/>
</g>
<g class="st1">
	<path class="st0" d="M55.8,60.1c-1.1,0-2.1-0.2-3-0.6c-0.9-0.4-1.7-0.9-2.4-1.6c-0.7-0.7-1.2-1.5-1.5-2.4c-0.4-0.9-0.5-1.9-0.5-2.9
		s0.2-2,0.5-2.9c0.4-0.9,0.9-1.7,1.5-2.4c0.7-0.7,1.5-1.2,2.4-1.6s1.9-0.6,3-0.6c1.1,0,2.1,0.2,3,0.6c0.9,0.4,1.7,1,2.3,1.6
		c0.6,0.7,1.1,1.5,1.5,2.4c0.3,0.9,0.5,1.8,0.5,2.8c0,0.2,0,0.4,0,0.6s0,0.3,0,0.4H51c0.1,0.7,0.2,1.4,0.5,2
		c0.3,0.6,0.6,1.1,1.1,1.5c0.4,0.4,1,0.8,1.5,1c0.6,0.2,1.2,0.4,1.8,0.4c0.4,0,0.9-0.1,1.3-0.2c0.4-0.1,0.8-0.3,1.2-0.5
		c0.4-0.2,0.7-0.5,1-0.8c0.3-0.3,0.5-0.6,0.7-1l2.1,0.6c-0.2,0.5-0.6,1-1,1.5c-0.4,0.4-0.9,0.8-1.5,1.2c-0.6,0.3-1.2,0.6-1.8,0.8
		C57.2,60,56.5,60.1,55.8,60.1z M60.8,51.6c-0.1-0.7-0.2-1.3-0.5-1.9c-0.3-0.6-0.7-1.1-1.1-1.5c-0.4-0.4-0.9-0.7-1.5-1
		c-0.6-0.2-1.2-0.3-1.8-0.3s-1.3,0.1-1.8,0.3c-0.6,0.2-1.1,0.6-1.5,1c-0.4,0.4-0.8,0.9-1.1,1.5c-0.3,0.6-0.4,1.2-0.5,1.9H60.8z"/>
	<path class="st0" d="M69.6,60.1c-0.7,0-1.3-0.1-1.9-0.4c-0.6-0.2-1.1-0.6-1.6-1c-0.4-0.4-0.8-0.9-1-1.4c-0.3-0.6-0.4-1.2-0.4-1.8
		c0-0.7,0.1-1.3,0.4-1.8c0.3-0.5,0.7-1,1.3-1.4c0.6-0.4,1.2-0.7,2-0.9S70,51,70.9,51c0.7,0,1.4,0.1,2.2,0.2c0.7,0.1,1.4,0.3,1.9,0.5
		v-1.2c0-1.2-0.3-2.1-1-2.8s-1.6-1-2.9-1c-1.5,0-3,0.6-4.6,1.7l-0.8-1.6c1.9-1.3,3.8-1.9,5.7-1.9c1.9,0,3.4,0.5,4.5,1.5
		c1.1,1,1.6,2.5,1.6,4.3v6c0,0.6,0.3,0.9,0.8,0.9v2.1c-0.3,0-0.5,0.1-0.6,0.1s-0.3,0-0.5,0c-0.5,0-0.9-0.1-1.2-0.4
		c-0.3-0.3-0.5-0.6-0.5-1l-0.1-1c-0.7,0.9-1.5,1.5-2.5,2S70.8,60.1,69.6,60.1z M70.3,58.3c0.9,0,1.7-0.2,2.5-0.5
		c0.8-0.3,1.3-0.8,1.7-1.3c0.4-0.4,0.5-0.7,0.5-1.1v-2.2c-1.2-0.5-2.4-0.7-3.7-0.7c-1.2,0-2.2,0.3-3,0.8c-0.8,0.5-1.2,1.2-1.2,2
		c0,0.4,0.1,0.8,0.2,1.1c0.2,0.4,0.4,0.7,0.7,0.9c0.3,0.3,0.6,0.5,1,0.6S69.8,58.3,70.3,58.3z"/>
	<path class="st0" d="M87.4,60.1c-1,0-1.9-0.2-2.8-0.6c-0.9-0.4-1.6-1-2.2-1.7c-0.6-0.7-1.1-1.5-1.4-2.4c-0.3-0.9-0.5-1.9-0.5-2.9
		c0-1,0.2-2,0.5-2.9s0.8-1.7,1.4-2.4s1.3-1.2,2.1-1.6s1.7-0.6,2.7-0.6c1.2,0,2.2,0.3,3.1,0.9c0.9,0.6,1.7,1.4,2.2,2.2v-8.7h2.5v17.4
		c0,0.6,0.3,0.9,0.8,0.9v2.1c-0.3,0-0.5,0.1-0.6,0.1c-0.2,0-0.3,0-0.5,0c-0.5,0-0.9-0.2-1.3-0.5c-0.4-0.3-0.5-0.7-0.5-1.1v-1.2
		c-0.6,1-1.3,1.7-2.3,2.2C89.5,59.9,88.5,60.1,87.4,60.1z M88,58c0.4,0,0.9-0.1,1.4-0.3s0.9-0.4,1.3-0.7c0.4-0.3,0.8-0.6,1.1-1
		s0.5-0.8,0.6-1.3v-4.2c-0.2-0.5-0.4-0.9-0.8-1.3s-0.7-0.8-1.1-1.1s-0.9-0.5-1.3-0.7s-0.9-0.3-1.4-0.3c-0.7,0-1.4,0.2-2,0.5
		c-0.6,0.3-1.1,0.7-1.5,1.2c-0.4,0.5-0.7,1.1-1,1.8c-0.2,0.7-0.3,1.3-0.3,2c0,0.7,0.1,1.4,0.4,2.1c0.3,0.7,0.6,1.2,1.1,1.7
		c0.4,0.5,1,0.9,1.6,1.2C86.6,57.8,87.3,58,88,58z"/>
	<path class="st0" d="M105.4,60.1c-1.1,0-2.1-0.2-3-0.6s-1.7-1-2.3-1.7c-0.6-0.7-1.1-1.5-1.5-2.4c-0.4-0.9-0.5-1.9-0.5-2.9
		c0-1,0.2-2,0.5-2.9c0.4-0.9,0.9-1.7,1.5-2.4s1.4-1.2,2.3-1.7c0.9-0.4,1.9-0.6,3-0.6c1.1,0,2.1,0.2,3,0.6c0.9,0.4,1.7,1,2.3,1.7
		s1.1,1.5,1.5,2.4c0.4,0.9,0.5,1.9,0.5,2.9c0,1-0.2,2-0.5,2.9c-0.4,0.9-0.9,1.7-1.5,2.4c-0.7,0.7-1.4,1.2-2.3,1.7
		S106.5,60.1,105.4,60.1z M100.5,52.6c0,0.8,0.1,1.5,0.4,2.1c0.3,0.7,0.6,1.2,1,1.7s1,0.9,1.5,1.1c0.6,0.3,1.2,0.4,1.9,0.4
		s1.3-0.1,1.9-0.4c0.6-0.3,1.1-0.7,1.6-1.2c0.4-0.5,0.8-1.1,1.1-1.7c0.3-0.7,0.4-1.4,0.4-2.1c0-0.7-0.1-1.5-0.4-2.1
		c-0.3-0.7-0.6-1.2-1.1-1.7c-0.4-0.5-1-0.9-1.6-1.2c-0.6-0.3-1.2-0.4-1.9-0.4s-1.3,0.1-1.9,0.4s-1.1,0.7-1.5,1.2
		c-0.4,0.5-0.8,1.1-1,1.7C100.7,51.1,100.5,51.8,100.5,52.6z"/>
	<path class="st0" d="M130.7,60.1c-1.2,0-2.3-0.3-3.2-0.9c-0.9-0.6-1.7-1.4-2.2-2.3v8.8h-2.5V45.2h2.2V48c0.6-0.9,1.3-1.6,2.3-2.2
		c0.9-0.6,1.9-0.8,3.1-0.8c1,0,1.9,0.2,2.8,0.6c0.8,0.4,1.6,1,2.2,1.7c0.6,0.7,1.1,1.5,1.4,2.4c0.3,0.9,0.5,1.9,0.5,2.9
		c0,1-0.2,2-0.5,3c-0.3,0.9-0.8,1.7-1.3,2.4c-0.6,0.7-1.3,1.2-2.1,1.6C132.6,59.9,131.7,60.1,130.7,60.1z M130,58
		c0.7,0,1.4-0.2,2-0.5c0.6-0.3,1.1-0.7,1.5-1.2s0.7-1.1,1-1.8c0.2-0.7,0.3-1.3,0.3-2c0-0.7-0.1-1.4-0.4-2.1
		c-0.3-0.7-0.6-1.2-1.1-1.7c-0.4-0.5-1-0.9-1.6-1.2c-0.6-0.3-1.3-0.4-2-0.4c-0.4,0-0.9,0.1-1.4,0.3c-0.5,0.2-0.9,0.4-1.3,0.7
		c-0.4,0.3-0.8,0.6-1.1,1c-0.3,0.4-0.5,0.8-0.6,1.3v4.2c0.2,0.5,0.5,0.9,0.8,1.4s0.7,0.8,1.1,1.1c0.4,0.3,0.8,0.6,1.3,0.7
		C129,57.9,129.5,58,130,58z"/>
	<path class="st0" d="M146.7,60.1c-1.1,0-2.1-0.2-3-0.6s-1.7-1-2.3-1.7c-0.6-0.7-1.1-1.5-1.5-2.4c-0.4-0.9-0.5-1.9-0.5-2.9
		c0-1,0.2-2,0.5-2.9c0.4-0.9,0.9-1.7,1.5-2.4s1.4-1.2,2.3-1.7c0.9-0.4,1.9-0.6,3-0.6c1.1,0,2.1,0.2,3,0.6c0.9,0.4,1.7,1,2.3,1.7
		s1.1,1.5,1.5,2.4c0.4,0.9,0.5,1.9,0.5,2.9c0,1-0.2,2-0.5,2.9c-0.4,0.9-0.9,1.7-1.5,2.4c-0.7,0.7-1.4,1.2-2.3,1.7
		S147.8,60.1,146.7,60.1z M141.8,52.6c0,0.8,0.1,1.5,0.4,2.1c0.3,0.7,0.6,1.2,1,1.7s1,0.9,1.5,1.1c0.6,0.3,1.2,0.4,1.9,0.4
		s1.3-0.1,1.9-0.4c0.6-0.3,1.1-0.7,1.6-1.2c0.4-0.5,0.8-1.1,1.1-1.7c0.3-0.7,0.4-1.4,0.4-2.1c0-0.7-0.1-1.5-0.4-2.1
		c-0.3-0.7-0.6-1.2-1.1-1.7c-0.4-0.5-1-0.9-1.6-1.2c-0.6-0.3-1.2-0.4-1.9-0.4s-1.3,0.1-1.9,0.4s-1.1,0.7-1.5,1.2
		c-0.4,0.5-0.8,1.1-1,1.7C142,51.1,141.8,51.8,141.8,52.6z"/>
</g>
<g class="st1">
	<path class="st0" d="M164.8,47.4c-1.2,0-2.3,0.4-3.3,1c-0.9,0.6-1.6,1.4-2,2.5v9h-2.5V45.2h2.3v3.4c0.5-1,1.2-1.8,2-2.5
		c0.8-0.6,1.7-1,2.6-1c0.2,0,0.3,0,0.5,0c0.1,0,0.2,0,0.3,0V47.4z"/>
</g>
</svg>
