<svg id="Capa_2" data-name="Capa 2" xmlns="http://www.w3.org/2000/svg" viewBox="0 0 394 64"><defs><style>.cls-1{fill:#ffa400;}</style></defs><title>kikan_logo</title><path class="cls-1" d="M57.75,21.63A28.91,28.91,0,0,0,46.29,8.31l.47-.18a11.17,11.17,0,0,0,2.88-1.69,3.43,3.43,0,0,0,1.42-3h0V3.34l-.12,0a48.53,48.53,0,0,0-5.06-.84c-1.69-.2-3.39-.37-5.09-.48s-3.42-.18-5.15-.14c-.43,0-.87,0-1.3.06A11.75,11.75,0,0,0,33,2a10.84,10.84,0,0,0-1.33.22l-.34.07a3.28,3.28,0,0,0-.47.16l-.2.09-.19-.09A3.28,3.28,0,0,0,30,2.31l-.34-.07A13.07,13.07,0,0,0,28.35,2C27.9,2,27.47,1.94,27,1.92s-.87,0-1.3,0c-1.73,0-3.44,0-5.14.15s-3.41.29-5.1.5a45.34,45.34,0,0,0-5,.86l-.07,0v.05h0A3.39,3.39,0,0,0,11.76,6.4a11.71,11.71,0,0,0,2.87,1.69l.56.21a29.3,29.3,0,0,0-5,3.92A28.82,28.82,0,0,0,1.55,32.81,29.33,29.33,0,0,0,30.76,62.16,29.34,29.34,0,0,0,57.81,44a29.07,29.07,0,0,0-.06-22.38ZM34.49,3.42c.41,0,.82-.11,1.23-.14,1.66-.16,3.35-.22,5-.23s3.38,0,5.07.1a47.58,47.58,0,0,1,4.92.45,3.12,3.12,0,0,1-1.42,2.46A11,11,0,0,1,46.51,7.5a24.19,24.19,0,0,1-3.13.87l-.09,0C42,7.54,40.74,6.8,39.43,6.08s-2.64-1.4-4-2c-.45-.2-.9-.39-1.37-.57ZM31.4,5a3.4,3.4,0,0,1,.09-.46h.06l.25,0a7.77,7.77,0,0,1,1,.22c.68.17,1.37.4,2,.64,1.37.49,2.73,1,4.07,1.65s2.68,1.24,4,1.91,2.54,1.31,3.72,2.07a2.43,2.43,0,0,1-2,1.14A10,10,0,0,1,42,12.12a26.91,26.91,0,0,1-5.27-1.31,17.6,17.6,0,0,1-2.46-1,6.14,6.14,0,0,1-1.93-1.56,4.61,4.61,0,0,1-.95-2.13A4,4,0,0,1,31.4,5ZM14.85,7.54A10.61,10.61,0,0,1,12,6.1a3.12,3.12,0,0,1-1.44-2.56,48.72,48.72,0,0,1,5-.44C17.23,3,18.93,3,20.61,3s3.38.09,5,.25c.42,0,.83.09,1.24.15l.48.08c-.47.18-.94.38-1.39.58-1.38.62-2.71,1.3-4,2S19.37,7.55,18.1,8.33L18,8.41A22.17,22.17,0,0,1,14.85,7.54ZM18.45,9c1.32-.66,2.65-1.3,4-1.9s2.7-1.16,4.07-1.64c.69-.24,1.38-.47,2.06-.64a7.63,7.63,0,0,1,1-.22l.15,0a2.7,2.7,0,0,0,0,.28,5.78,5.78,0,0,0,.12,1.61c0,.12.07.23.1.34a4.63,4.63,0,0,1-.8,1.56,8.77,8.77,0,0,1-4.44,2.62,26.87,26.87,0,0,1-5.29,1.29,10.18,10.18,0,0,1-2.7,0,2.47,2.47,0,0,1-2-1.22C15.9,10.27,17.18,9.61,18.45,9ZM48.05,50.1A24.46,24.46,0,0,1,13.54,50a25.27,25.27,0,0,1-5.31-7.89,24.49,24.49,0,0,1-.09-18.7,26.71,26.71,0,0,1,5.22-8,24.94,24.94,0,0,1,3.22-2.76h0a11.13,11.13,0,0,0,2.82.1,26.86,26.86,0,0,0,5.49-1A10.35,10.35,0,0,0,30,9.1a5.67,5.67,0,0,0,.6-.77,5.91,5.91,0,0,0,.64.85,10.17,10.17,0,0,0,5.16,2.67,27.81,27.81,0,0,0,5.52,1,10.44,10.44,0,0,0,2.84-.13l.17-.05a24.52,24.52,0,0,1,3.19,2.74,26,26,0,0,1,5.27,8A24.51,24.51,0,0,1,48.05,50.1ZM30.51,33.19c-1.19-1.7-1.1-3.4-1.27-5.11s0-3.4,0-5.11a44.52,44.52,0,0,1,.54-5.11c.24-1.7.43-3.4.72-5.1a.18.18,0,0,1,.21-.15.17.17,0,0,1,.15.15c.29,1.7.48,3.4.72,5.1A46.91,46.91,0,0,1,32.14,23c0,1.71.11,3.41,0,5.11s-.08,3.41-1.27,5.11a.21.21,0,0,1-.3.06Zm7.33,12.74-2.35-2.86a30.34,30.34,0,0,1-2.36-2.86,23.55,23.55,0,0,1-1.89-3.12,5.76,5.76,0,0,1-.7-3.81.24.24,0,0,1,.28-.19h0a5.9,5.9,0,0,1,2.95,2.51,24.31,24.31,0,0,1,1.75,3.21,31.15,31.15,0,0,1,1.3,3.46l1.3,3.47a.18.18,0,0,1-.31.18Z"/><path class="cls-1" d="M91.79,49.2V15.12h7.87V29.8l12.48-14.68H121L108.2,30.33,121.83,49.2h-9l-9.65-13.73-3.55,3.69v10Z"/><path class="cls-1" d="M124.38,49.2V15.12h7.87V49.2Z"/><path class="cls-1" d="M138.78,49.2V15.12h7.87V29.8l12.48-14.68H168L155.19,30.33,168.83,49.2h-9L150.2,35.47l-3.55,3.69v10Z"/><path class="cls-1" d="M180.63,15.12h7.11L200.17,49.2H192.1l-2.64-7.64h-10.6l-2.6,7.64H168.2Zm7.54,21-4-12L180.1,36.14Z"/><path class="cls-1" d="M211.4,29.71V49.2h-7.87V15.12h6.14l15.89,20v-20h7.87V49.2H227.1Z"/><path class="cls-1" d="M275.77,22H265.4V49.2h-7.87V22H247.11V15.12h28.66Z"/><path class="cls-1" d="M279.61,49.2V15.12h7.87V49.2Z"/><path class="cls-1" d="M320.89,49.2V28.8l-7.4,14.83h-4.22L301.88,28.8V49.2H294V15.12h8.54l8.83,17.8,8.88-17.8h8.5V49.2Z"/><path class="cls-1" d="M359.24,42.28V49.2H335.29V15.12h23.52V22H343.16v6.62H356.6V35H343.16v7.24Z"/><path class="cls-1" d="M364,49.2V15.12H379.4a9.91,9.91,0,0,1,4.44,1,12.18,12.18,0,0,1,3.53,2.64,12.36,12.36,0,0,1,2.32,3.7,11,11,0,0,1,.84,4.18,11.73,11.73,0,0,1-.38,3,11.87,11.87,0,0,1-1.1,2.76,10.35,10.35,0,0,1-1.76,2.33A10.48,10.48,0,0,1,385,36.52l7.48,12.68h-8.88l-6.52-11h-5.14v11Zm7.87-17.86h7.2a3,3,0,0,0,2.4-1.32,5.43,5.43,0,0,0,1-3.38,4.79,4.79,0,0,0-1.15-3.36,3.35,3.35,0,0,0-2.5-1.25h-7Z"/></svg>