<svg id="Capa_2" data-name="Capa 2" xmlns="http://www.w3.org/2000/svg" viewBox="0 0 116.32 120"><defs><style>.cls-1{fill:#b81738;}.cls-2{fill:#fff;}.cls-3{fill:#172e57;}.cls-4{fill:#2fac66;}.cls-5{fill:#00644f;}.cls-6{fill:#49b170;}</style></defs><title>tomato</title><path class="cls-1" d="M5.25,39.65a57.26,57.26,0,0,1,53-34.76A58.61,58.61,0,0,1,80,9.05a56.37,56.37,0,0,1,35.55,52.54,57.53,57.53,0,0,1-57.31,57.58,57.37,57.37,0,0,1-53-79.52Z"/><circle class="cls-2" cx="58.21" cy="62.03" r="47.65"/><path class="cls-3" d="M58.69,64.71C61,61.8,60.86,58.89,61.19,56s.05-5.82,0-8.73a70.25,70.25,0,0,0-1.06-8.73c-.48-2.91-.85-5.82-1.42-8.73a.35.35,0,0,0-.41-.25.33.33,0,0,0-.3.25c-.56,2.91-.93,5.82-1.41,8.73a68.41,68.41,0,0,0-1.06,8.73c-.07,2.91-.23,5.82,0,8.73s.16,5.82,2.49,8.73a.48.48,0,0,0,.61.09A.28.28,0,0,0,58.69,64.71Z"/><path class="cls-3" d="M80.48,51.92l-6,2.17a53.26,53.26,0,0,0-6,2.16,44.4,44.4,0,0,0-5.63,3c-1.75,1.24-3.53,2.42-4.57,5.07a.42.42,0,0,0,.23.54h0c2.67.59,4.6-.29,6.56-1.11a43.4,43.4,0,0,0,5.5-3.22,55.07,55.07,0,0,0,5.09-4l5.1-4a.33.33,0,0,0,.07-.45A.28.28,0,0,0,80.48,51.92Z"/><path class="cls-4" d="M56.55,4.84v0h0S56.55,4.84,56.55,4.84Z"/><path class="cls-4" d="M60.15,4.87h0v0S60.16,4.86,60.15,4.87Z"/><path class="cls-5" d="M14.85,4.26h0V4L15.11,4A97.56,97.56,0,0,1,25.9,2.17c3.62-.44,7.24-.78,10.89-1s7.3-.38,11-.3c.92,0,1.85.06,2.78.12s1.86.12,2.8.25a22.22,22.22,0,0,1,2.85.46l.72.15a7.13,7.13,0,0,1,1,.34l.41.2c.14-.06.27-.14.41-.19a7.24,7.24,0,0,1,1-.35l.72-.14a20.79,20.79,0,0,1,2.85-.45A27.09,27.09,0,0,1,66.16,1C67.09.94,68,.89,68.94.89c3.69-.07,7.35.07,11,.33s7.26.61,10.88,1.06a99.27,99.27,0,0,1,10.77,1.83l.15,0v.12h0c.37,2.46-1.15,4.79-3,6.28a24.47,24.47,0,0,1-6.13,3.61A51.86,51.86,0,0,1,87.4,16c2,1.25,3.9,2.53,5.77,4l.24.19-.11.22h0a4.53,4.53,0,0,1-2,2.46,8,8,0,0,1-1.42.67c-.49.14-1,.27-1.49.39a23.76,23.76,0,0,1-6,.21,58.37,58.37,0,0,1-11.73-2.21c-3.72-1.07-7.94-2.32-10.91-5.61a12.84,12.84,0,0,1-1.29-1.63,13.42,13.42,0,0,1-1.35,1.8c-3,3.35-7.3,4.69-11,5.71a58.81,58.81,0,0,1-11.8,2.15,22.89,22.89,0,0,1-6.06-.27c-.5-.12-1-.27-1.5-.42A8.65,8.65,0,0,1,25.31,23a4.58,4.58,0,0,1-2-2.53h0l-.12-.25.27-.2c1.83-1.41,3.74-2.67,5.67-3.89A49.7,49.7,0,0,1,24,14.26a24.48,24.48,0,0,1-6.16-3.6C16.05,9.16,14.49,6.8,14.85,4.26Z"/><path class="cls-4" d="M56.62,5.51h0C56.6,5.45,56.6,5.47,56.62,5.51Z"/><path class="cls-6" d="M85.51,14.86l-.27-.17Q81.18,12.2,77,9.9c-2.8-1.53-5.64-3-8.58-4.31-1-.43-2-.85-3-1.24.34,0,.67-.13,1-.17.88-.12,1.75-.24,2.64-.31,3.55-.36,7.15-.5,10.76-.53s7.22,0,10.83.18a101.8,101.8,0,0,1,10.64.94c.11,2.24-1.34,4.17-3.09,5.47A23.58,23.58,0,0,1,92.18,13,49.17,49.17,0,0,1,85.51,14.86Z"/><path class="cls-6" d="M24.27,20.47c2.52-1.62,5.24-3,7.93-4.42s5.66-2.79,8.52-4.07,5.77-2.49,8.7-3.52a42.69,42.69,0,0,1,4.39-1.37A17.51,17.51,0,0,1,56,6.61l.54-.1h.12a7.9,7.9,0,0,1,.21,1,9.07,9.07,0,0,1,0,2.44,9.89,9.89,0,0,1-2,4.55,13.19,13.19,0,0,1-4.11,3.33A37.82,37.82,0,0,1,45.4,20a57.89,57.89,0,0,1-11.25,2.81,21.8,21.8,0,0,1-5.7.11A5.12,5.12,0,0,1,24.27,20.47Z"/><path class="cls-6" d="M60.23,10.58a12.69,12.69,0,0,0,.26-3.43c0-.2-.06-.4-.09-.6l.31.06a20.15,20.15,0,0,1,2.17.47c1.46.36,2.93.85,4.39,1.37C70.2,9.48,73.1,10.68,76,12S81.68,14.6,84.49,16s5.43,2.81,8,4.44c-.69,1.54-2.44,2.35-4.2,2.6A20.91,20.91,0,0,1,82.51,23,57.41,57.41,0,0,1,71.2,20.25c-3.72-1.22-7.28-2.75-9.48-5.6A10.19,10.19,0,0,1,60,11.31C60.08,11.07,60.17,10.83,60.23,10.58Z"/><path class="cls-6" d="M26,3.63c3.61-.17,7.22-.25,10.82-.22s7.2.15,10.75.49c.89.07,1.77.19,2.64.31.32,0,.63.1.95.15-1,.39-2,.79-2.92,1.22-3,1.32-5.79,2.77-8.58,4.3S34.14,13,31.43,14.67l-.18.11a50.84,50.84,0,0,1-6.68-1.87,23.51,23.51,0,0,1-6-3.08,6.59,6.59,0,0,1-3-5.24A98.88,98.88,0,0,1,26,3.63Z"/><path class="cls-3" d="M14.12,62a4.35,4.35,0,0,1,1.54-.45,7.35,7.35,0,0,1,1.55.1c1,.09,2.05.21,3.08.35v.1c-1,.14-2.06.26-3.08.35a7.35,7.35,0,0,1-1.55.1,4.35,4.35,0,0,1-1.54-.45Z"/><path class="cls-3" d="M102.24,62.14a3.71,3.71,0,0,1-1.39.45,6,6,0,0,1-1.39-.1c-.92-.09-1.85-.21-2.78-.35V62c.93-.15,1.86-.26,2.78-.35a5,5,0,0,1,1.39-.1,3.39,3.39,0,0,1,1.39.45Z"/><path class="cls-3" d="M58.26,18a4.29,4.29,0,0,1,.45,1.54,7.21,7.21,0,0,1-.1,1.54c-.09,1-.2,2.06-.35,3.09h-.1c-.14-1-.26-2.06-.35-3.09a7.21,7.21,0,0,1-.1-1.54A4.5,4.5,0,0,1,58.16,18Z"/><path class="cls-3" d="M58.1,106.09a3.77,3.77,0,0,1-.45-1.39,5.92,5.92,0,0,1,.1-1.39c.09-.93.21-1.85.35-2.78h.1c.15.93.27,1.85.35,2.78a5,5,0,0,1,.1,1.39,3.43,3.43,0,0,1-.45,1.39Z"/><path class="cls-3" d="M97.71,42.48a4.28,4.28,0,0,1-1.12,1.16,6.56,6.56,0,0,1-1.38.68q-1.41.65-2.85,1.23l0-.09c.82-.63,1.65-1.25,2.5-1.83a6.17,6.17,0,0,1,1.29-.86,4.31,4.31,0,0,1,1.56-.38Z"/><path class="cls-3" d="M21.21,86.22a3.67,3.67,0,0,1,1-1.08,6.12,6.12,0,0,1,1.26-.61c.84-.38,1.71-.74,2.58-1.08l0,.09c-.73.59-1.48,1.15-2.23,1.69a5.61,5.61,0,0,1-1.16.78,3.61,3.61,0,0,1-1.43.3Z"/><path class="cls-3" d="M19.39,41a3.14,3.14,0,0,1,1.3.22,4.63,4.63,0,0,1,1,.7c.67.49,1.32,1,2,1.54l-.05.08c-.78-.28-1.55-.59-2.31-.92a4.43,4.43,0,0,1-1.12-.53,3,3,0,0,1-.85-1Z"/><path class="cls-3" d="M95.79,84.92a3.48,3.48,0,0,1-1.43-.3,5.18,5.18,0,0,1-1.15-.78c-.76-.53-1.51-1.1-2.24-1.68l0-.09c.88.34,1.74.7,2.59,1.08a5.36,5.36,0,0,1,1.25.61,3.43,3.43,0,0,1,1,1.08Z"/><path class="cls-3" d="M82.17,24.66a4.36,4.36,0,0,1-.38,1.56,7.35,7.35,0,0,1-.86,1.28c-.59.85-1.21,1.68-1.85,2.49l-.09,0c.39-1,.81-1.9,1.25-2.84a7.08,7.08,0,0,1,.68-1.38,4.45,4.45,0,0,1,1.17-1.11Z"/><path class="cls-3" d="M37.85,100.82a3.49,3.49,0,0,1,.31-1.43,5.18,5.18,0,0,1,.78-1.15c.54-.76,1.11-1.5,1.7-2.23l.08,0c-.34.87-.7,1.73-1.09,2.58A5.18,5.18,0,0,1,39,99.89a3.58,3.58,0,0,1-1.09,1Z"/><path class="cls-3" d="M35.14,24.07a4.08,4.08,0,0,1,1.16,1.1A6.43,6.43,0,0,1,37,26.56c.44.93.85,1.88,1.24,2.84l-.08.05c-.64-.82-1.26-1.65-1.85-2.49a6.38,6.38,0,0,1-.86-1.28,4.36,4.36,0,0,1-.38-1.56Z"/><path class="cls-3" d="M79.29,100.33a3.67,3.67,0,0,1-1.08-1,5.18,5.18,0,0,1-.61-1.25c-.39-.85-.75-1.71-1.09-2.58l.08,0c.59.73,1.16,1.47,1.7,2.23a5.3,5.3,0,0,1,.78,1.15,3.45,3.45,0,0,1,.31,1.43Z"/></svg>